<?xml version="1.0" encoding="utf-8"?>
<svg xmlns="http://www.w3.org/2000/svg" viewBox="0 0 500 500" xmlns:bx="https://boxy-svg.com">
  <defs>
    <bx:export>
      <bx:file format="svg" normalization="{&quot;removeAnimations&quot;:true,&quot;removeBoxySVGMetadata&quot;:true,&quot;removeForeignMetadata&quot;:true}" path="RED_PANDA.svg"/>
    </bx:export>
  </defs>
  <g id="Layer_1" transform="matrix(0.379728, 0, 0, 0.379728, 39.77499, 156.72438)">
    <path opacity="1.000000" stroke="none" d="M -26.418 123.156 C -46.887 85.986 -60.468 46.608 -70.217 5.856 C -82.214 -44.296 -87.858 -95.194 -86.371 -146.77 C -85.21 -187.08 -80.277 -226.84 -65.175 -264.62 C -60.94 -275.21 -54.816 -285.04 -49.711 -295.3 C -46.105 -302.54 -39.835 -304.57 -32.422 -304.94 C -9.656 -306.08 12.852 -303.88 35.144 -299.5 C 117.599 -283.3 196.059 -255.53 270.925 -217.51 C 279.957 -212.92 288.674 -207.67 297.28 -202.31 C 301.223 -199.85 303.704 -200.27 307.205 -203.31 C 332.578 -225.29 362.513 -238.77 394.146 -248.81 C 432.468 -260.97 471.889 -267.01 511.966 -269.04 C 577.208 -272.34 641.378 -265.62 704.297 -247.91 C 743.889 -236.76 781.653 -221.35 816.197 -198.65 C 817.31 -197.92 819.904 -197.8 820.767 -198.57 C 837.715 -213.65 857.94 -223.07 878.414 -231.95 C 931.399 -254.92 986.391 -271.79 1042.83 -283.61 C 1069.51 -289.2 1096.6 -293.11 1123.67 -296.35 C 1135.2 -297.72 1147.22 -295.89 1158.93 -294.62 C 1165.11 -293.94 1169.89 -290.44 1173.09 -284.18 C 1191.11 -248.85 1199.31 -210.94 1202.52 -171.88 C 1209.39 -88.316 1198.18 -7.054 1169.58 71.744 C 1159.56 99.34 1147.08 125.802 1130.18 149.947 C 1127.41 153.908 1130.07 156.062 1131.6 158.732 C 1145.91 183.634 1154.97 210.589 1161.27 238.37 C 1181.48 327.611 1169.8 412.377 1123.85 491.903 C 1107.4 520.39 1086.61 545.45 1061.92 567.231 C 1060.07 568.864 1058.24 570.533 1056.44 572.159 C 1079.97 592.781 1096.61 618.267 1111.93 644.642 C 1136.74 687.369 1157.27 731.993 1169.87 779.983 C 1172.31 789.277 1170.45 792.434 1160.93 794.119 C 1157.83 794.667 1154.64 794.914 1151.49 794.894 C 902.68 793.295 653.872 791.653 405.064 790.019 C 261.245 789.074 117.426 788.135 -26.393 787.199 C -28.392 787.186 -30.391 787.267 -32.39 787.274 C -39.973 787.298 -42.119 785.859 -41.532 778.419 C -40.621 766.853 -39.979 755.001 -36.902 743.914 C -21.324 687.773 4.865 636.834 40.636 590.864 C 45.419 584.717 51.028 579.212 56.131 573.548 C 46.777 564.614 36.774 556.022 27.876 546.408 C -35.735 477.677 -66.857 396.571 -62.251 302.796 C -59.557 247.954 -41.461 198.336 -6.261 155.776 C -12.985 144.931 -19.63 134.212 -26.418 123.156 M 915.781 577.231 C 916.222 577.069 916.663 576.907 917.74 576.471 C 980.303 535.199 1030.99 482.927 1066.22 416.284 C 1064.49 416.744 1063.23 417.701 1062.01 418.708 C 1043.44 434.022 1023.38 447.119 1002.04 458.185 C 983.01 468.06 963.902 478.009 941.684 478.618 C 941.543 478.916 941.296 479.208 941.28 479.512 C 941.199 481.007 941.146 482.506 941.144 484.004 C 941.127 501.602 939.359 519.079 933.546 535.676 C 928.735 549.414 922.203 562.55 915.953 576.127 C 915.722 576.376 915.491 576.626 915.311 577.301 C 915.397 577.37 915.483 577.439 915.569 577.509 C 915.439 577.278 915.308 577.047 915.781 577.231 M 346.631 633.461 C 346.754 633.423 346.878 633.386 347.001 633.348 C 346.865 633.283 346.729 633.218 346.374 632.514 C 339.376 623.902 331.91 615.624 325.469 606.613 C 307.582 581.589 296.868 553.443 290.779 523.448 C 290.264 520.912 289.912 519.219 286.679 519.1 C 254.911 517.932 226.856 506.358 201.159 488.279 C 200.177 487.589 199.05 487.106 197.447 486.229 C 197.608 488.971 197.58 490.971 197.862 492.926 C 200.666 512.426 206.628 531.016 212.931 549.647 C 217.064 561.864 223.54 572.03 233.103 579.742 C 244.148 588.649 256.057 596.698 268.362 603.782 C 285.179 613.463 303.228 620.684 321.868 626.235 C 330.081 628.681 338.384 630.823 346.631 633.461 M 285.077 129.098 C 254.511 134.361 225.513 144.215 198.121 158.777 C 146.476 186.234 103.978 223.702 73.13 273.71 C 55.968 301.532 44.113 331.408 41.743 364.315 C 41.343 369.882 42.825 376.819 46.07 381.152 C 52.489 389.722 60.085 397.721 68.364 404.534 C 101.06 431.435 138.176 450.715 177.512 465.93 C 179.021 466.514 180.632 466.833 182.283 467.301 C 184.852 382.258 228.872 325.196 302.13 287.339 C 301.121 285.954 300.118 284.657 299.196 283.303 C 283.363 260.049 280.064 235.355 293.386 210.231 C 306.137 186.184 326.931 173.88 354.502 174.447 C 386.571 175.107 414.25 196.339 423.243 226.739 C 432.051 256.512 420.648 286.86 393.266 304.847 C 382.993 311.595 372.531 317.854 363.196 326.054 C 350.57 337.146 339.207 349.152 330.416 363.48 C 303.024 408.124 295.505 456.721 302.032 508.015 C 302.27 509.884 304.062 512.323 305.77 513.113 C 317.074 518.345 328.297 523.921 340.016 528.056 C 404.721 550.884 471.984 559.167 540.088 561.954 C 583.258 563.721 626.363 562.328 669.306 557.137 C 700.427 553.375 731.165 547.77 760.975 537.882 C 777.754 532.317 794.004 525.529 808.349 514.852 C 811.722 512.342 813.755 509.52 814.219 505.079 C 818.419 464.834 814.778 425.575 799.639 387.784 C 788.771 360.652 772.997 337.264 747.935 321.002 C 735.044 312.637 723.402 302.856 713.987 290.456 C 702.946 275.913 696.836 259.928 696.588 241.553 C 695.998 197.853 729.964 168.229 773.088 175.098 C 813.685 181.563 843.923 225.119 835.946 265.467 C 833.887 275.881 829.544 285.205 823.227 293.705 C 829.04 296.711 834.609 299.334 839.919 302.407 C 845.387 305.57 850.843 308.85 855.889 312.633 C 904.76 349.268 931.886 398.479 939.808 458.656 C 941.028 467.925 942.73 469.81 951.507 467.302 C 961.38 464.481 971.255 461.268 980.592 457.04 C 1010.16 443.651 1037.63 426.792 1061.77 404.924 C 1073.54 394.264 1078.44 380.819 1076.7 364.926 C 1074.73 346.91 1069.95 329.648 1063.02 312.973 C 1047.17 274.812 1023.04 242.45 993.116 214.264 C 954.696 178.075 910.619 151.42 859.786 136.609 C 825.568 126.639 790.831 122.993 755.652 131.22 C 725.28 138.322 700.108 153.376 683.644 180.717 C 668.909 205.184 665.857 231.882 669.186 259.754 C 669.821 265.074 670.167 270.628 669.364 275.878 C 667.958 285.066 663.792 286.037 656.045 280.955 C 643.553 272.76 631.163 264.107 617.759 257.665 C 586.665 242.722 553.992 237.588 520.174 247.266 C 499.53 253.175 481.222 263.297 466.675 279.637 C 465.191 281.304 461.155 281.915 458.77 281.276 C 455.226 280.326 454.337 276.903 454.665 273.147 C 455.691 261.424 457.867 249.597 457.145 237.963 C 454.524 195.759 435.065 163.402 397.391 143.336 C 362.208 124.598 324.469 123.082 285.077 129.098 M 955.457 -4.197 C 926.958 -33.898 895.609 -60.187 860.978 -82.457 C 785.338 -131.1 702.609 -159.36 613.164 -168.04 C 537.066 -175.42 462.435 -167.83 389.574 -144.71 C 285.277 -111.61 197.754 -53.484 130.389 33.196 C 61.157 122.278 27.227 223.507 29.782 336.613 C 29.824 338.459 29.787 340.307 29.787 342.154 C 32.838 334.336 34.712 326.445 37.261 318.779 C 52.325 273.458 79.208 235.835 113.299 203.006 C 138.203 179.022 166.391 159.436 197.101 143.855 C 212.599 135.992 229.189 129.936 245.794 124.669 C 284.814 112.295 324.659 108.159 365.057 117.181 C 399.053 124.773 427.789 141.149 448.168 170.179 C 463.774 192.41 470.829 217.409 470.983 244.455 C 471.005 248.31 470.986 252.165 470.986 256.864 C 473.622 255.115 475.287 254.045 476.916 252.924 C 499.808 237.154 525.193 229.198 552.948 229.05 C 586.796 228.869 617.352 239.745 645.836 257.305 C 648.992 259.25 652.085 261.299 655.979 263.794 C 655.587 259.519 655.255 256.388 655.018 253.249 C 652.426 218.909 659.345 187.152 681.724 160.117 C 704.138 133.039 734.119 119.781 768.266 115.103 C 803.258 110.31 837.422 115.009 870.76 125.82 C 933.346 146.115 985.615 182.024 1028.31 231.872 C 1055.3 263.389 1075.69 298.593 1085.85 339.213 C 1086.09 340.166 1086.67 341.032 1087.1 341.938 C 1087.66 324.28 1087.69 306.767 1086.54 289.332 C 1082.86 233.757 1068.97 180.699 1046.01 129.991 C 1023.53 80.351 993.129 36.049 955.457 -4.197 M 438.145 657.135 C 470.435 664.049 503.061 668.68 536.004 670.8 C 588.566 674.182 640.806 671.428 692.883 663.235 C 721.305 658.765 744.793 646.256 763.89 625.18 C 777.419 610.249 787.623 593.118 795.621 574.656 C 802.312 559.21 807.338 543.254 810.732 525.98 C 789.219 539.9 766.091 548.06 742.181 554.207 C 690.752 567.43 638.254 572.025 585.369 572.829 C 532.477 573.633 479.859 569.884 427.693 560.983 C 391.89 554.875 356.608 546.599 322.895 532.661 C 317.163 530.291 311.513 527.725 305.291 525.018 C 305.469 526.522 305.486 527.337 305.669 528.112 C 312.849 558.499 325.163 586.457 345.296 610.587 C 361.47 629.972 380.852 644.362 406.31 649.377 C 416.74 651.432 426.983 654.431 438.145 657.135 M 1129.72 -133.21 C 1129.64 -154.84 1129.95 -176.48 1129.26 -198.1 C 1129.03 -205.43 1126.74 -212.83 1124.5 -219.92 C 1122.53 -226.14 1119.13 -227.6 1112.71 -226.66 C 1109.92 -226.24 1107.08 -225.87 1104.38 -225.09 C 1079.02 -217.73 1053.34 -211.25 1028.4 -202.66 C 971.594 -183.11 916.25 -159.99 863.957 -130.11 C 855.059 -125.03 845.758 -120.28 840.329 -112 C 863.604 -96.385 886.925 -80.739 910.334 -65.035 C 911.932 -66.388 913.946 -68.361 916.214 -69.977 C 951.898 -95.405 990.334 -115.75 1031.29 -131.21 C 1042.59 -135.48 1054.41 -138.5 1066.15 -141.49 C 1074.89 -143.72 1077.93 -141.27 1078.53 -132.4 C 1079.06 -124.62 1079.71 -116.77 1079.31 -109 C 1077.39 -71.587 1070.31 -34.974 1060.41 1.031 C 1053.57 25.878 1048.23 51.552 1030.9 72.354 C 1037.76 84.341 1044.6 96.503 1051.75 108.475 C 1052.56 109.829 1055.82 111.272 1056.82 110.702 C 1062.67 107.382 1069.91 104.656 1073.45 99.508 C 1080.23 89.622 1086.14 78.707 1090.17 67.418 C 1113.18 2.852 1124.31 -64.156 1129.72 -133.21 M 257.844 -99.13 C 265.041 -103.48 272.239 -107.83 279.424 -112.18 C 275.064 -119.64 267.084 -126.97 254.263 -135.12 C 201.105 -168.9 143.521 -192.92 83.787 -212.16 C 64.89 -218.24 45.619 -222.83 25.824 -224.56 C 13.619 -225.62 11.232 -223.77 6.668 -212.54 C -1.469 -192.51 -4.215 -171.41 -5.172 -150.04 C -7.427 -99.67 -0.312 -50.363 12.201 -1.724 C 21.638 34.96 34.18 70.497 52.727 103.672 C 55.237 108.162 59.055 111.921 62.369 116.147 C 72.074 98.594 81.223 82.048 89.583 66.929 C 84.641 57.574 79.497 49.238 75.668 40.336 C 61.715 7.901 53.552 -26.209 47.624 -60.89 C 43.575 -84.577 41.191 -108.43 41.535 -132.5 C 41.667 -141.74 44.762 -145.01 53.972 -144.67 C 59.584 -144.47 65.283 -143.64 70.722 -142.24 C 106.815 -132.93 139.825 -116.45 171.642 -97.549 C 186.177 -88.915 199.86 -78.848 213.847 -69.487 C 228.004 -79.052 242.607 -88.918 257.844 -99.13 M 832.533 313.707 C 826.848 310.948 821.247 307.987 815.422 305.565 C 813.851 304.911 811.21 305.281 809.724 306.226 C 801.306 311.582 792.356 315.373 782.396 316.479 C 777.686 317.002 772.944 317.243 768.216 317.612 C 767.943 317.975 767.67 318.337 767.398 318.699 C 768.73 319.635 770.349 320.334 771.351 321.543 C 780.035 332.025 789.809 341.845 796.997 353.283 C 822.089 393.213 830.482 437.568 829.096 484.147 C 828.865 491.913 828.233 499.667 827.781 507.534 C 837.207 510.298 846.411 510.667 855.72 509.116 C 883.559 504.477 907.072 492.246 924.42 469.495 C 925.859 467.608 926.811 464.559 926.491 462.259 C 925.161 452.717 923.943 443.071 921.449 433.796 C 907.638 382.45 879.547 341.48 832.533 313.707 M 298.219 400.277 C 309.69 366.338 328.067 337.015 357.108 313.704 C 340.592 312.978 326.764 307.988 314.373 298.884 C 313.416 298.181 311.192 298.415 309.949 299.019 C 304.114 301.856 298.274 304.733 292.693 308.031 C 238.959 339.79 204.647 384.792 197.094 448.141 C 194.521 469.72 195.51 472.894 213.686 484.434 C 234.178 497.445 256.344 506.168 280.655 508.806 C 287.594 509.559 288.215 508.999 287.585 502.64 C 284.16 468.06 287.089 434.134 298.219 400.277 M 183.967 -44.016 C 190.062 -49.278 196.158 -54.54 202.344 -59.882 C 201.364 -60.81 200.921 -61.316 200.397 -61.715 C 160.647 -91.873 117.023 -114.48 69.18 -128.78 C 64.809 -130.08 60.17 -130.5 54.474 -131.54 C 57.037 -66.136 68.629 -4.023 97.485 55.487 C 122.576 17.948 151.066 -14.498 183.967 -44.016 M 1046.23 2.215 C 1055.02 -30.48 1061.93 -63.553 1064.97 -97.303 C 1065.87 -107.25 1065.11 -117.35 1065.11 -127.66 C 1061.78 -126.75 1058.71 -126 1055.7 -125.08 C 1010.41 -111.25 969 -89.511 929.958 -63.035 C 926.806 -60.898 924.548 -57.441 921.701 -54.413 C 960.789 -21.459 994.599 16.344 1023.24 60.198 C 1026.16 55.416 1029.17 51.886 1030.65 47.8 C 1036.03 32.959 1040.89 17.932 1046.23 2.215 M 906.501 565.525 C 921.004 540.215 927.459 512.896 927.675 482.464 C 913.689 497.108 898.332 507.096 880.744 513.488 C 863.121 519.893 845.057 522.42 826.15 518.023 C 817.285 567.397 798.814 611.616 761.524 646.907 C 762.8 646.907 763.316 647.021 763.761 646.891 C 803.16 635.377 841.05 620.144 877.26 600.779 C 877.992 600.388 878.828 600.07 879.388 599.496 C 889.384 589.253 899.312 578.95 906.501 565.525 M 168.7 473.616 C 126.279 456.621 86.689 434.793 51.723 404.865 C 51.637 405.958 51.768 406.769 52.163 407.419 C 65.88 430.008 78.321 453.513 93.68 474.926 C 114.216 503.558 139.824 527.711 168.519 548.332 C 178.565 555.552 188.972 562.282 199.395 568.952 C 201.589 570.356 204.576 570.518 208.278 571.554 C 207.337 569.039 207.027 567.946 206.536 566.941 C 203.271 560.256 199.404 553.802 196.788 546.874 C 190.181 529.376 185.959 511.099 184.667 492.549 C 183.9 481.534 180.142 475.537 168.7 473.616 M 726.588 252.605 C 727.293 253.312 727.946 254.08 728.711 254.715 C 736.731 261.364 747.726 260.589 754.454 252.921 C 760.856 245.626 759.802 234.173 752.081 227.121 C 744.467 220.166 733.214 220.429 726.299 227.724 C 720.016 234.351 719.932 242.925 726.588 252.605 M 371.665 221.41 C 363.517 226.838 360.796 236.05 364.919 244.248 C 369.099 252.56 378.586 256.568 387.01 253.581 C 395.869 250.439 400.353 239.768 396.66 230.616 C 392.404 220.068 382.762 216.3 371.665 221.41 M 51.45 403.727 C 51.279 403.662 51.107 403.596 50.935 403.53 C 50.989 403.719 51.044 403.909 51.45 403.727 Z" style="stroke-width: 1;" fill="#02151F"/>
    <path fill="#FEFEFE" opacity="1.000000" stroke="none" d="M 285.508 129.039 C 324.469 123.082 362.208 124.598 397.391 143.336 C 435.065 163.402 454.524 195.759 457.145 237.963 C 457.867 249.597 455.691 261.424 454.665 273.147 C 454.337 276.903 455.226 280.326 458.77 281.276 C 461.155 281.915 465.191 281.304 466.675 279.637 C 481.222 263.297 499.53 253.175 520.174 247.266 C 553.992 237.588 586.665 242.722 617.759 257.665 C 631.163 264.107 643.553 272.76 656.045 280.955 C 663.792 286.037 667.958 285.066 669.364 275.878 C 670.167 270.628 669.821 265.074 669.186 259.754 C 665.857 231.882 668.909 205.184 683.644 180.717 C 700.108 153.376 725.28 138.322 755.652 131.22 C 790.831 122.993 825.568 126.639 859.786 136.609 C 910.619 151.42 954.696 178.075 993.116 214.264 C 1023.04 242.45 1047.17 274.812 1063.02 312.973 C 1069.95 329.648 1074.73 346.91 1076.7 364.926 C 1078.44 380.819 1073.54 394.264 1061.77 404.924 C 1037.63 426.792 1010.16 443.651 980.592 457.04 C 971.255 461.268 961.38 464.481 951.507 467.302 C 942.73 469.81 941.028 467.925 939.808 458.656 C 931.886 398.479 904.76 349.268 855.889 312.633 C 850.843 308.85 845.387 305.57 839.919 302.407 C 834.609 299.334 829.04 296.711 823.227 293.705 C 829.544 285.205 833.887 275.881 835.946 265.467 C 843.923 225.119 813.685 181.563 773.088 175.098 C 729.964 168.229 695.998 197.853 696.588 241.553 C 696.836 259.928 702.946 275.913 713.987 290.456 C 723.402 302.856 735.044 312.637 747.935 321.002 C 772.997 337.264 788.771 360.652 799.639 387.784 C 814.778 425.575 818.419 464.834 814.219 505.079 C 813.755 509.52 811.722 512.342 808.349 514.852 C 794.004 525.529 777.754 532.317 760.975 537.882 C 731.165 547.77 700.427 553.375 669.306 557.137 C 626.363 562.328 583.258 563.721 540.088 561.954 C 471.984 559.167 404.721 550.884 340.016 528.056 C 328.297 523.921 317.074 518.345 305.77 513.113 C 304.062 512.323 302.27 509.884 302.032 508.015 C 295.505 456.721 303.024 408.124 330.416 363.48 C 339.207 349.152 350.57 337.146 363.196 326.054 C 372.531 317.854 382.993 311.595 393.266 304.847 C 420.648 286.86 432.051 256.512 423.243 226.739 C 414.25 196.339 386.571 175.107 354.502 174.447 C 326.931 173.88 306.137 186.184 293.386 210.231 C 280.064 235.355 283.363 260.049 299.196 283.303 C 300.118 284.657 301.121 285.954 302.13 287.339 C 228.872 325.196 184.852 382.258 182.283 467.301 C 180.632 466.833 179.021 466.514 177.512 465.93 C 138.176 450.715 101.06 431.435 68.364 404.534 C 60.085 397.721 52.489 389.722 46.07 381.152 C 42.825 376.819 41.343 369.882 41.743 364.315 C 44.113 331.408 55.968 301.532 73.13 273.71 C 103.978 223.702 146.476 186.234 198.121 158.777 C 225.513 144.215 254.511 134.361 285.508 129.039 M 493.439 327.64 C 495.566 357.591 516.391 369.762 541.486 377.821 C 541.486 385.836 542.813 393.945 541.209 401.424 C 537.887 416.91 528.21 427.948 513.417 434.169 C 507.434 436.685 501.834 436.418 495.818 433.378 C 486.265 428.551 479.851 420.743 473.507 412.625 C 470.694 409.025 467.947 404.851 464.171 402.661 C 459.588 400.004 453.746 399.805 449.239 403.528 C 444.434 407.499 442.361 412.94 444.108 419.217 C 449.846 439.841 464.794 452.671 483.486 459.617 C 507.412 468.509 529.527 462.443 548.177 444.746 C 551.395 441.692 554.691 438.719 557.705 435.937 C 572.727 450.194 587.849 463.537 609.742 463.411 C 617.91 463.364 626.644 462.932 634.097 460.039 C 646.225 455.332 657.014 447.54 665.157 437.202 C 669.673 431.468 673.222 424.641 675.745 417.769 C 677.963 411.728 673.2 405.007 666.473 402.125 C 660.145 399.413 655.963 400.704 651.338 406.737 C 647.494 411.752 644.11 417.245 639.637 421.621 C 631.904 429.187 622.474 433.576 611.305 432.664 C 593.953 431.247 583.733 420.815 579.321 404.968 C 577.138 397.125 577.49 388.548 577.059 380.284 C 577.007 379.294 579.077 377.817 580.449 377.189 C 588.269 373.607 596.801 371.187 603.94 366.586 C 631.029 349.128 632.835 315.529 608.314 294.648 C 585.409 275.142 546.796 271.785 520.048 287.111 C 504.709 295.9 494.553 308.297 493.439 327.64 Z" style="stroke-width: 1;"/>
    <path fill="#F71401" opacity="1.000000" stroke="none" d="M 955.692 -3.932 C 993.129 36.049 1023.53 80.351 1046.01 129.991 C 1068.97 180.699 1082.86 233.757 1086.54 289.332 C 1087.69 306.767 1087.66 324.28 1087.1 341.938 C 1086.67 341.032 1086.09 340.166 1085.85 339.213 C 1075.69 298.593 1055.3 263.389 1028.31 231.872 C 985.615 182.024 933.346 146.115 870.76 125.82 C 837.422 115.009 803.258 110.31 768.266 115.103 C 734.119 119.781 704.138 133.039 681.724 160.117 C 659.345 187.152 652.426 218.909 655.018 253.249 C 655.255 256.388 655.587 259.519 655.979 263.794 C 652.085 261.299 648.992 259.25 645.836 257.305 C 617.352 239.745 586.796 228.869 552.948 229.05 C 525.193 229.198 499.808 237.154 476.916 252.924 C 475.287 254.045 473.622 255.115 470.986 256.864 C 470.986 252.165 471.005 248.31 470.983 244.455 C 470.829 217.409 463.774 192.41 448.168 170.179 C 427.789 141.149 399.053 124.773 365.057 117.181 C 324.659 108.159 284.814 112.295 245.794 124.669 C 229.189 129.936 212.599 135.992 197.101 143.855 C 166.391 159.436 138.203 179.022 113.299 203.006 C 79.208 235.835 52.325 273.458 37.261 318.779 C 34.712 326.445 32.838 334.336 29.787 342.154 C 29.787 340.307 29.824 338.459 29.782 336.613 C 27.227 223.507 61.157 122.278 130.389 33.196 C 197.754 -53.484 285.277 -111.61 389.574 -144.71 C 462.435 -167.83 537.066 -175.42 613.164 -168.04 C 702.609 -159.36 785.338 -131.1 860.978 -82.457 C 895.609 -60.187 926.958 -33.898 955.692 -3.932 M 335.179 76.082 C 353.499 92.176 374.788 102.32 398.631 106.85 C 417.098 110.359 435.532 110.48 452.698 101.314 C 466.206 94.101 474.041 82.824 473.692 67.093 C 473.31 49.862 464.592 36.33 452.818 24.738 C 429.585 1.862 401.362 -10.366 368.92 -12.489 C 354.257 -13.448 340.028 -11.284 327.234 -3.161 C 313.72 5.42 307.17 20.261 310.223 35.955 C 313.387 52.223 322.722 64.725 335.179 76.082 M 659.556 80.609 C 666.484 92.841 677.399 99.84 690.647 102.995 C 717.738 109.447 742.793 102.977 766.341 89.468 C 782.708 80.079 796.047 67.524 803.765 49.886 C 814.75 24.783 803.989 0.145 778.182 -8.866 C 760.034 -15.203 741.761 -14.218 723.698 -8.819 C 697.845 -1.092 676.048 12.576 662.191 36.53 C 654.207 50.333 652.009 64.91 659.556 80.609 Z" style="stroke-width: 1;"/>
    <path fill="#F1D1A5" opacity="1.000000" stroke="none" d="M 437.728 657.068 C 426.983 654.431 416.74 651.432 406.31 649.377 C 380.852 644.362 361.47 629.972 345.296 610.587 C 325.163 586.457 312.849 558.499 305.669 528.112 C 305.486 527.337 305.469 526.522 305.291 525.018 C 311.513 527.725 317.163 530.291 322.895 532.661 C 356.608 546.599 391.89 554.875 427.693 560.983 C 479.859 569.884 532.477 573.633 585.369 572.829 C 638.254 572.025 690.752 567.43 742.181 554.207 C 766.091 548.06 789.219 539.9 810.732 525.98 C 807.338 543.254 802.312 559.21 795.621 574.656 C 787.623 593.118 777.419 610.249 763.89 625.18 C 744.793 646.256 721.305 658.765 692.883 663.235 C 640.806 671.428 588.566 674.182 536.004 670.8 C 503.061 668.68 470.435 664.049 437.728 657.068 Z" style="stroke-width: 1;"/>
    <path fill="#FDFEFE" opacity="1.000000" stroke="none" d="M 1129.68 -132.74 C 1124.31 -64.156 1113.18 2.852 1090.17 67.418 C 1086.14 78.707 1080.23 89.622 1073.45 99.508 C 1069.91 104.656 1062.67 107.382 1056.82 110.702 C 1055.82 111.272 1052.56 109.829 1051.75 108.475 C 1044.6 96.503 1037.76 84.341 1030.9 72.354 C 1048.23 51.552 1053.57 25.878 1060.41 1.031 C 1070.31 -34.974 1077.39 -71.587 1079.31 -109 C 1079.71 -116.77 1079.06 -124.62 1078.53 -132.4 C 1077.93 -141.27 1074.89 -143.72 1066.15 -141.49 C 1054.41 -138.5 1042.59 -135.48 1031.29 -131.21 C 990.334 -115.75 951.898 -95.405 916.214 -69.977 C 913.946 -68.361 911.932 -66.388 910.334 -65.035 C 886.925 -80.739 863.604 -96.385 840.329 -112 C 845.758 -120.28 855.059 -125.03 863.957 -130.11 C 916.25 -159.99 971.594 -183.11 1028.4 -202.66 C 1053.34 -211.25 1079.02 -217.73 1104.38 -225.09 C 1107.08 -225.87 1109.92 -226.24 1112.71 -226.66 C 1119.13 -227.6 1122.53 -226.14 1124.5 -219.92 C 1126.74 -212.83 1129.03 -205.43 1129.26 -198.1 C 1129.95 -176.48 1129.64 -154.84 1129.68 -132.74 Z" style="stroke-width: 1;"/>
    <path fill="#FDFEFE" opacity="1.000000" stroke="none" d="M 257.527 -98.959 C 242.607 -88.918 228.004 -79.052 213.847 -69.487 C 199.86 -78.848 186.177 -88.915 171.642 -97.549 C 139.825 -116.45 106.815 -132.93 70.722 -142.24 C 65.283 -143.64 59.584 -144.47 53.972 -144.67 C 44.762 -145.01 41.667 -141.74 41.535 -132.5 C 41.191 -108.43 43.575 -84.577 47.624 -60.89 C 53.552 -26.209 61.715 7.901 75.668 40.336 C 79.497 49.238 84.641 57.574 89.583 66.929 C 81.223 82.048 72.074 98.594 62.369 116.147 C 59.055 111.921 55.237 108.162 52.727 103.672 C 34.18 70.497 21.638 34.96 12.201 -1.724 C -0.312 -50.363 -7.427 -99.67 -5.172 -150.04 C -4.215 -171.41 -1.469 -192.51 6.668 -212.54 C 11.232 -223.77 13.619 -225.62 25.824 -224.56 C 45.619 -222.83 64.89 -218.24 83.787 -212.16 C 143.521 -192.92 201.105 -168.9 254.263 -135.12 C 267.084 -126.97 275.064 -119.64 279.424 -112.18 C 272.239 -107.83 265.041 -103.48 257.527 -98.959 Z" style="stroke-width: 1;"/>
    <path fill="#F71401" opacity="1.000000" stroke="none" d="M 832.855 313.886 C 879.547 341.48 907.638 382.45 921.449 433.796 C 923.943 443.071 925.161 452.717 926.491 462.259 C 926.811 464.559 925.859 467.608 924.42 469.495 C 907.072 492.246 883.559 504.477 855.72 509.116 C 846.411 510.667 837.207 510.298 827.781 507.534 C 828.233 499.667 828.865 491.913 829.096 484.147 C 830.482 437.568 822.089 393.213 796.997 353.283 C 789.809 341.845 780.035 332.025 771.351 321.543 C 770.349 320.334 768.73 319.635 767.398 318.699 C 767.67 318.337 767.943 317.975 768.216 317.612 C 772.944 317.243 777.686 317.002 782.396 316.479 C 792.356 315.373 801.306 311.582 809.724 306.226 C 811.21 305.281 813.851 304.911 815.422 305.565 C 821.247 307.987 826.848 310.948 832.855 313.886 Z" style="stroke-width: 1;"/>
    <path fill="#F71401" opacity="1.000000" stroke="none" d="M 298.063 400.641 C 287.089 434.134 284.16 468.06 287.585 502.64 C 288.215 508.999 287.594 509.559 280.655 508.806 C 256.344 506.168 234.178 497.445 213.686 484.434 C 195.51 472.894 194.521 469.72 197.094 448.141 C 204.647 384.792 238.959 339.79 292.693 308.031 C 298.274 304.733 304.114 301.856 309.949 299.019 C 311.192 298.415 313.416 298.181 314.373 298.884 C 326.764 307.988 340.592 312.978 357.108 313.704 C 328.067 337.015 309.69 366.338 298.063 400.641 Z" style="stroke-width: 1;"/>
    <path fill="#F1D1A5" opacity="1.000000" stroke="none" d="M 183.7 -43.784 C 151.066 -14.498 122.576 17.948 97.485 55.487 C 68.629 -4.023 57.037 -66.136 54.474 -131.54 C 60.17 -130.5 64.809 -130.08 69.18 -128.78 C 117.023 -114.48 160.647 -91.873 200.397 -61.715 C 200.921 -61.316 201.364 -60.81 202.344 -59.882 C 196.158 -54.54 190.062 -49.278 183.7 -43.784 Z" style="stroke-width: 1;"/>
    <path fill="#F1D1A5" opacity="1.000000" stroke="none" d="M 1046.09 2.595 C 1040.89 17.932 1036.03 32.959 1030.65 47.8 C 1029.17 51.886 1026.16 55.416 1023.24 60.198 C 994.599 16.344 960.789 -21.459 921.701 -54.413 C 924.548 -57.441 926.806 -60.898 929.958 -63.035 C 969 -89.511 1010.41 -111.25 1055.7 -125.08 C 1058.71 -126 1061.78 -126.75 1065.11 -127.66 C 1065.11 -117.35 1065.87 -107.25 1064.97 -97.303 C 1061.93 -63.553 1055.02 -30.48 1046.09 2.595 Z" style="stroke-width: 1;"/>
    <path fill="#900302" opacity="1.000000" stroke="none" d="M 906.324 565.846 C 899.312 578.95 889.384 589.253 879.388 599.496 C 878.828 600.07 877.992 600.388 877.26 600.779 C 841.05 620.144 803.16 635.377 763.761 646.891 C 763.316 647.021 762.8 646.907 761.524 646.907 C 798.814 611.616 817.285 567.397 826.15 518.023 C 845.057 522.42 863.121 519.893 880.744 513.488 C 898.332 507.096 913.689 497.108 927.675 482.464 C 927.459 512.896 921.004 540.215 906.324 565.846 Z" style="stroke-width: 1;"/>
    <path fill="#900302" opacity="1.000000" stroke="none" d="M 346.647 633.103 C 338.384 630.823 330.081 628.681 321.868 626.235 C 303.228 620.684 285.179 613.463 268.362 603.782 C 256.057 596.698 244.148 588.649 233.103 579.742 C 223.54 572.03 217.064 561.864 212.931 549.647 C 206.628 531.016 200.666 512.426 197.862 492.926 C 197.58 490.971 197.608 488.971 197.447 486.229 C 199.05 487.106 200.177 487.589 201.159 488.279 C 226.856 506.358 254.911 517.932 286.679 519.1 C 289.912 519.219 290.264 520.912 290.779 523.448 C 296.868 553.443 307.582 581.589 325.469 606.613 C 331.91 615.624 339.376 623.902 346.498 632.822 C 346.622 633.13 346.647 633.103 346.647 633.103 Z" style="stroke-width: 1;"/>
    <path fill="#EFD0A5" opacity="1.000000" stroke="none" d="M 169.051 473.782 C 180.142 475.537 183.9 481.534 184.667 492.549 C 185.959 511.099 190.181 529.376 196.788 546.874 C 199.404 553.802 203.271 560.256 206.536 566.941 C 207.027 567.946 207.337 569.039 208.278 571.554 C 204.576 570.518 201.589 570.356 199.395 568.952 C 188.972 562.282 178.565 555.552 168.519 548.332 C 139.824 527.711 114.216 503.558 93.68 474.926 C 78.321 453.513 65.88 430.008 52.163 407.419 C 51.768 406.769 51.637 405.958 51.723 404.865 C 86.689 434.793 126.279 456.621 169.051 473.782 Z" style="stroke-width: 1;"/>
    <path fill="#EFD0A4" opacity="1.000000" stroke="none" d="M 916.434 575.953 C 922.203 562.55 928.735 549.414 933.546 535.676 C 939.359 519.079 941.127 501.602 941.144 484.004 C 941.146 482.506 941.199 481.007 941.28 479.512 C 941.296 479.208 941.543 478.916 941.687 478.621 C 963.902 478.009 983.01 468.06 1002.04 458.185 C 1023.38 447.119 1043.44 434.022 1062.01 418.708 C 1063.23 417.701 1064.49 416.744 1066.22 416.284 C 1030.99 482.927 980.303 535.199 917.262 576.404 C 916.667 576.209 916.551 576.081 916.434 575.953 Z" style="stroke-width: 1;"/>
    <path fill="#FDFDFD" opacity="1.000000" stroke="none" d="M 726.324 252.347 C 719.932 242.925 720.016 234.351 726.299 227.724 C 733.214 220.429 744.467 220.166 752.081 227.121 C 759.802 234.173 760.856 245.626 754.454 252.921 C 747.726 260.589 736.731 261.364 728.711 254.715 C 727.946 254.08 727.293 253.312 726.324 252.347 Z" style="stroke-width: 1;"/>
    <path fill="#FDFDFD" opacity="1.000000" stroke="none" d="M 372.029 221.271 C 382.762 216.3 392.404 220.068 396.66 230.616 C 400.353 239.768 395.869 250.439 387.01 253.581 C 378.586 256.568 369.099 252.56 364.919 244.248 C 360.796 236.05 363.517 226.838 372.029 221.271 Z" style="stroke-width: 1;"/>
    <path fill="#EFD0A5" opacity="1.000000" stroke="none" d="M 51.274 403.913 C 51.044 403.909 50.989 403.719 50.935 403.53 C 51.107 403.596 51.279 403.662 51.274 403.913 Z" style="stroke-width: 1;"/>
    <path fill="#EFD0A4" opacity="1.000000" stroke="none" d="M 916.944 576.541 C 916.663 576.907 916.222 577.069 915.502 577.035 C 915.223 576.839 915.259 576.875 915.259 576.875 C 915.491 576.626 915.722 576.376 916.194 576.04 C 916.551 576.081 916.667 576.209 916.944 576.541 Z" style="stroke-width: 1;"/>
    <path fill="#EFD0A4" opacity="1.000000" stroke="none" d="M 915.2 576.828 C 915.308 577.047 915.439 577.278 915.569 577.509 C 915.483 577.439 915.397 577.37 915.285 577.088 C 915.259 576.875 915.223 576.839 915.2 576.828 Z" style="stroke-width: 1;"/>
    <path fill="#900302" opacity="1.000000" stroke="none" d="M 346.608 633.141 C 346.729 633.218 346.865 633.283 347.001 633.348 C 346.878 633.386 346.754 633.423 346.639 633.282 C 346.647 633.103 346.622 633.13 346.608 633.141 Z" style="stroke-width: 1;"/>
    <path fill="#03151F" opacity="1.000000" stroke="none" d="M 493.44 327.174 C 494.553 308.297 504.709 295.9 520.048 287.111 C 546.796 271.785 585.409 275.142 608.314 294.648 C 632.835 315.529 631.029 349.128 603.94 366.586 C 596.801 371.187 588.269 373.607 580.449 377.189 C 579.077 377.817 577.007 379.294 577.059 380.284 C 577.49 388.548 577.138 397.125 579.321 404.968 C 583.733 420.815 593.953 431.247 611.305 432.664 C 622.474 433.576 631.904 429.187 639.637 421.621 C 644.11 417.245 647.494 411.752 651.338 406.737 C 655.963 400.704 660.145 399.413 666.473 402.125 C 673.2 405.007 677.963 411.728 675.745 417.769 C 673.222 424.641 669.673 431.468 665.157 437.202 C 657.014 447.54 646.225 455.332 634.097 460.039 C 626.644 462.932 617.91 463.364 609.742 463.411 C 587.849 463.537 572.727 450.194 557.705 435.937 C 554.691 438.719 551.395 441.692 548.177 444.746 C 529.527 462.443 507.412 468.509 483.486 459.617 C 464.794 452.671 449.846 439.841 444.108 419.217 C 442.361 412.94 444.434 407.499 449.239 403.528 C 453.746 399.805 459.588 400.004 464.171 402.661 C 467.947 404.851 470.694 409.025 473.507 412.625 C 479.851 420.743 486.265 428.551 495.818 433.378 C 501.834 436.418 507.434 436.685 513.417 434.169 C 528.21 427.948 537.887 416.91 541.209 401.424 C 542.813 393.945 541.486 385.836 541.486 377.821 C 516.391 369.762 495.566 357.591 493.44 327.174 Z" style="stroke-width: 1;"/>
    <path fill="#071620" opacity="1.000000" stroke="none" d="M 334.916 75.846 C 322.722 64.725 313.387 52.223 310.223 35.955 C 307.17 20.261 313.72 5.42 327.234 -3.161 C 340.028 -11.284 354.257 -13.448 368.92 -12.489 C 401.362 -10.366 429.585 1.862 452.818 24.738 C 464.592 36.33 473.31 49.862 473.692 67.093 C 474.041 82.824 466.206 94.101 452.698 101.314 C 435.532 110.48 417.098 110.359 398.631 106.85 C 374.788 102.32 353.499 92.176 334.916 75.846 M 426.727 94.98 C 432.2 93.644 437.909 92.906 443.101 90.859 C 458.263 84.882 464.048 71.567 458.064 56.395 C 456.019 51.209 453.252 46.053 449.762 41.734 C 431.555 19.203 407.305 7.058 379.18 2.15 C 365.188 -0.292 351.282 -0.043 338.112 6.183 C 325.393 12.196 320.073 23.808 324.467 37.174 C 326.302 42.759 328.899 48.505 332.583 53.004 C 356.624 82.363 387.952 96.048 426.727 94.98 Z" style="stroke-width: 1;"/>
    <path fill="#061620" opacity="1.000000" stroke="none" d="M 659.387 80.275 C 652.009 64.91 654.207 50.333 662.191 36.53 C 676.048 12.576 697.845 -1.092 723.698 -8.819 C 741.761 -14.218 760.034 -15.203 778.182 -8.866 C 803.989 0.145 814.75 24.783 803.765 49.886 C 796.047 67.524 782.708 80.079 766.341 89.468 C 742.793 102.977 717.738 109.447 690.647 102.995 C 677.399 99.84 666.484 92.841 659.387 80.275 M 705.357 13.315 C 703.789 14.255 702.182 15.138 700.658 16.145 C 687.219 25.019 675.672 35.589 670.323 51.369 C 665.172 66.564 670.743 79.725 685.222 86.635 C 696.884 92.2 709.284 93.005 721.824 91.032 C 748.35 86.858 770.779 75.39 786.651 53.045 C 792.274 45.129 795.817 36.207 794.14 26.326 C 791.677 11.81 781.061 5.216 768.018 2.241 C 745.977 -2.786 725.533 2.731 705.357 13.315 Z" style="stroke-width: 1;"/>
    <path fill="#FDFEFE" opacity="1.000000" stroke="none" d="M 426.263 95.005 C 387.952 96.048 356.624 82.363 332.583 53.004 C 328.899 48.505 326.302 42.759 324.467 37.174 C 320.073 23.808 325.393 12.196 338.112 6.183 C 351.282 -0.043 365.188 -0.292 379.18 2.15 C 407.305 7.058 431.555 19.203 449.762 41.734 C 453.252 46.053 456.019 51.209 458.064 56.395 C 464.048 71.567 458.263 84.882 443.101 90.859 C 437.909 92.906 432.2 93.644 426.263 95.005 Z" style="stroke-width: 1;"/>
    <path fill="#FDFDFE" opacity="1.000000" stroke="none" d="M 705.694 13.164 C 725.533 2.731 745.977 -2.786 768.018 2.241 C 781.061 5.216 791.677 11.81 794.14 26.326 C 795.817 36.207 792.274 45.129 786.651 53.045 C 770.779 75.39 748.35 86.858 721.824 91.032 C 709.284 93.005 696.884 92.2 685.222 86.635 C 670.743 79.725 665.172 66.564 670.323 51.369 C 675.672 35.589 687.219 25.019 700.658 16.145 C 702.182 15.138 703.789 14.255 705.694 13.164 Z" style="stroke-width: 1;"/>
  </g>
</svg>